<?xml version="1.0" standalone="no"?>
<!DOCTYPE svg PUBLIC "-//W3C//DTD SVG 20010904//EN"
 "http://www.w3.org/TR/2001/REC-SVG-20010904/DTD/svg10.dtd">
<svg version="1.0" xmlns="http://www.w3.org/2000/svg"
 width="512.000000pt" height="512.000000pt" viewBox="0 0 512.000000 512.000000"
 preserveAspectRatio="xMidYMid meet">
<metadata>
Created by potrace 1.11, written by Peter Selinger 2001-2013
</metadata>
<g transform="translate(0.000000,512.000000) scale(0.100000,-0.100000)"
fill="#000000" stroke="none">
<path d="M767 3332 l-767 -767 765 -765 c421 -421 767 -766 769 -768 3 -2 321
313 347 344 9 11 -108 132 -576 600 -322 322 -585 588 -583 590 2 2 266 267
588 589 l585 585 -180 180 -180 180 -768 -768z"/>
<path d="M3405 3920 l-180 -180 588 -588 589 -589 -587 -587 c-487 -487 -585
-589 -575 -601 15 -19 314 -318 332 -333 11 -9 172 147 781 756 l767 767 -768
768 -767 767 -180 -180z"/>
</g>
</svg>
